<svg xmlns="http://www.w3.org/2000/svg" viewBox="0 0 512 512" role="img" aria-labelledby="title desc">
  <title id="title">Promptly Doomed logo</title>
  <desc id="desc">A prompt card stamped doomed with a blinking cursor.</desc>
  <defs>
    <linearGradient id="tile" x1="66" y1="38" x2="440" y2="470" gradientUnits="userSpaceOnUse">
      <stop offset="0" stop-color="#123d45"/>
      <stop offset="0.5" stop-color="#172026"/>
      <stop offset="1" stop-color="#3b1822"/>
    </linearGradient>
    <linearGradient id="card" x1="128" y1="92" x2="358" y2="398" gradientUnits="userSpaceOnUse">
      <stop offset="0" stop-color="#fffaf0"/>
      <stop offset="1" stop-color="#e7edf0"/>
    </linearGradient>
    <filter id="shadow" x="-20%" y="-20%" width="140%" height="150%">
      <feDropShadow dx="0" dy="18" stdDeviation="18" flood-color="#080d10" flood-opacity=".32"/>
    </filter>
  </defs>
  <rect width="512" height="512" rx="112" fill="url(#tile)"/>
  <path d="M92 98h328a32 32 0 0 1 32 32v246a32 32 0 0 1-32 32H92a32 32 0 0 1-32-32V130a32 32 0 0 1 32-32Z" fill="#0e171c" opacity=".35"/>
  <g filter="url(#shadow)">
    <path d="M102 78h284l64 64v236a32 32 0 0 1-32 32H102a32 32 0 0 1-32-32V110a32 32 0 0 1 32-32Z" fill="url(#card)"/>
    <path d="M386 78v48a16 16 0 0 0 16 16h48L386 78Z" fill="#cfd9df"/>
    <path d="M120 158h172" stroke="#1f6f78" stroke-width="24" stroke-linecap="round"/>
    <path d="M120 214h246" stroke="#b8c4cb" stroke-width="22" stroke-linecap="round"/>
    <path d="M120 266h120" stroke="#b8c4cb" stroke-width="22" stroke-linecap="round"/>
  </g>
  <g transform="rotate(-12 277 294)">
    <rect x="132" y="244" width="290" height="100" rx="18" fill="#8b2525"/>
    <rect x="144" y="256" width="266" height="76" rx="12" fill="none" stroke="#f7d7d0" stroke-width="8"/>
    <text x="277" y="311" fill="#fff3e8" font-family="Impact, Arial Black, sans-serif" font-size="52" font-weight="900" letter-spacing="3" text-anchor="middle">DOOMED</text>
  </g>
  <path d="M328 364h68" stroke="#9fd0ca" stroke-width="22" stroke-linecap="round"/>
  <path d="M396 332v64" stroke="#9fd0ca" stroke-width="22" stroke-linecap="round"/>
  <circle cx="106" cy="112" r="12" fill="#f39b72"/>
</svg>
